<?xml version="1.0" encoding="UTF-8"?>
<svg id="Layer_1" data-name="Layer 1" xmlns="http://www.w3.org/2000/svg" xmlns:xlink="http://www.w3.org/1999/xlink" viewBox="0 0 1024 702.31">
  <defs>
    <style>
      .cls-1 {
        fill: url(#linear-gradient-2);
      }

      .cls-2 {
        fill: url(#linear-gradient-3);
      }

      .cls-3 {
        fill: url(#linear-gradient);
      }
    </style>
    <linearGradient id="linear-gradient" x1="365.86" y1="196.84" x2="655.03" y2="502.18" gradientUnits="userSpaceOnUse">
      <stop offset="0" stop-color="#8d7046"/>
      <stop offset=".52" stop-color="#ddc36f"/>
      <stop offset="1" stop-color="#856639"/>
    </linearGradient>
    <linearGradient id="linear-gradient-2" x1="380.74" y1="182.74" x2="669.92" y2="488.08" xlink:href="#linear-gradient"/>
    <linearGradient id="linear-gradient-3" x1="350.88" y1="211.03" x2="640.06" y2="516.37" xlink:href="#linear-gradient"/>
  </defs>
  <path class="cls-3" d="m621.07,260.1c-7.56-13.42-16.68-24.19-27.1-32.02-12.33-9.25-26.38-14.15-40.62-14.15s-28.9,5.07-41.34,14.66c-12.45-9.59-26.52-14.66-41.35-14.66s-28.29,4.89-40.62,14.15c-10.43,7.83-19.55,18.61-27.11,32.02-13.95,24.77-21.64,57.11-21.64,91.05s7.69,66.28,21.64,91.06c7.56,13.42,16.68,24.19,27.11,32.02,12.32,9.25,26.37,14.15,40.62,14.15s28.9-5.07,41.35-14.66c12.45,9.59,26.52,14.66,41.34,14.66s28.29-4.89,40.62-14.15c10.43-7.83,19.54-18.6,27.1-32.02,13.96-24.78,21.64-57.11,21.64-91.06s-7.68-66.28-21.64-91.05Zm-67.73,200.65c-15.9,0-30.4-10.68-41.34-28.21-10.95,17.54-25.45,28.21-41.35,28.21-34.1,0-61.73-49.07-61.73-109.6s27.64-109.59,61.73-109.59c15.9,0,30.4,10.68,41.35,28.21,10.94-17.54,25.44-28.21,41.34-28.21,34.1,0,61.73,49.07,61.73,109.59s-27.64,109.6-61.73,109.6Z"/>
  <path class="cls-1" d="m535.82,280.15h-7.34c1.98,3.06,3.14,6.72,3.14,10.64s-1.2,7.74-3.28,10.85h7.48c9.36,0,16.97,7.61,16.97,16.97v4.81c0,9.36-7.61,16.98-16.97,16.98h-11.35c2.25,2.76,3.59,6.29,3.59,10.13,0,4.44-1.8,8.46-4.7,11.37h12.46c9.36,0,16.97,7.61,16.97,16.97v4.82c0,9.36-7.61,16.98-16.97,16.98h-7.14c1.87,3,2.94,6.54,2.94,10.33,0,4.15-1.29,7.99-3.49,11.16h7.69c21.21,0,38.46-17.26,38.46-38.47v-4.82c0-10.88-4.54-20.72-11.83-27.71,7.29-7.01,11.83-16.84,11.83-27.72v-4.81c0-21.21-17.25-38.46-38.46-38.46Z"/>
  <path class="cls-2" d="m488.18,361.9h12.46c-2.9-2.91-4.7-6.93-4.7-11.37,0-3.84,1.34-7.36,3.59-10.13h-11.35c-9.36,0-16.97-7.61-16.97-16.98v-4.81c0-9.36,7.61-16.97,16.97-16.97h7.48c-2.08-3.11-3.28-6.83-3.28-10.85s1.15-7.58,3.14-10.64h-7.34c-21.21,0-38.46,17.25-38.46,38.46v4.81c0,10.88,4.54,20.72,11.83,27.72-7.29,6.99-11.83,16.83-11.83,27.71v4.82c0,21.21,17.25,38.47,38.46,38.47h7.69c-2.2-3.17-3.49-7.01-3.49-11.16,0-3.79,1.07-7.33,2.94-10.33h-7.14c-9.36,0-16.97-7.61-16.97-16.98v-4.82c0-9.36,7.61-16.97,16.97-16.97Z"/>
</svg>