<?xml version="1.0" encoding="UTF-8"?>
<svg id="Layer_1" data-name="Layer 1" xmlns="http://www.w3.org/2000/svg" viewBox="0 0 1024 702.31">
  <path d="m228.26,322.85h13.18v37.41c0,1.7.04,3.1.13,4.21.09,1.11.38,2.42.89,3.95.51,1.53,1.2,2.75,2.08,3.66.88.91,2.2,1.69,3.95,2.34,1.76.65,3.85.98,6.29.98,5.61,0,9.58-1.79,11.9-5.36,1.3-1.93,1.95-5.41,1.95-10.46v-36.73h12.84v38.34c0,4.37-.81,8.18-2.42,11.44-1.62,3.26-3.77,5.77-6.46,7.52-2.69,1.76-5.54,3.06-8.54,3.91-3.01.85-6.18,1.27-9.52,1.27-11,0-18.7-3.54-23.13-10.63-1.36-2.1-2.23-4.28-2.59-6.55-.37-2.27-.55-5.13-.55-8.59v-36.73Z"/>
  <path d="m294.41,384.15v-61.47h19.05l23.04,48.38v-48.38h12.24v61.47h-18.11l-23.81-51.01v51.01h-12.41Z"/>
  <path d="m359.53,384.15v-61.64h13.18v61.64h-13.18Z"/>
  <path d="m379.09,322.94h14.37l16.07,48.21,16.15-48.21h13.01l-22.62,61.21h-14.37l-22.62-61.21Z"/>
  <path d="m445.74,384.15v-61.47h41.15v10.03h-27.97v14.62h26.19v10.03h-26.19v16.58h28.91v10.2h-42.09Z"/>
  <path d="m496.5,384.15v-61.47h23.55c2.95-.06,5.27-.03,6.97.09,1.7.11,3.68.5,5.95,1.15,2.27.65,4.17,1.63,5.7,2.93,3.57,3.12,5.36,7.06,5.36,11.82,0,7.6-4.28,12.61-12.84,15.05,1.81.17,3.36.54,4.63,1.11,1.28.57,2.25,1.18,2.93,1.83.68.65,1.28,1.69,1.79,3.1.51,1.42.85,2.59,1.02,3.53.17.94.4,2.45.68,4.55.79,6.12,1.42,10.09,1.87,11.9.45,1.7,1.08,3.18,1.87,4.42h-14.54c-.11-.74-.41-2.81-.89-6.21-.48-3.4-.95-6.6-1.4-9.61-.45-3-.79-4.85-1.02-5.53-.34-1.08-.95-1.88-1.83-2.42-.88-.54-1.63-.85-2.25-.94-.62-.08-1.47-.13-2.55-.13h-11.56v24.83h-13.43Zm13.01-51.78v17.18h10.63c3.06,0,5.3-.57,6.72-1.7,2.27-1.64,3.4-4.02,3.4-7.14s-1.08-5.53-3.23-6.89c-.91-.68-1.96-1.09-3.15-1.23-1.19-.14-3.03-.21-5.53-.21h-8.84Z"/>
  <path d="m550.23,364.51h13.43c0,.96.01,1.76.04,2.38.03.63.24,1.59.64,2.89.4,1.31.95,2.35,1.66,3.15.71.79,1.81,1.53,3.32,2.21,1.5.68,3.33,1.02,5.48,1.02,3.57,0,6.4-.78,8.5-2.34,2.1-1.56,3.15-3.64,3.15-6.25s-.81-4.22-2.42-5.19c-1.62-.96-4.69-1.98-9.22-3.06-7.88-1.98-13.62-4.32-17.22-7.01-3.6-2.69-5.4-6.56-5.4-11.61,0-5.5,2.04-10.05,6.12-13.65,4.08-3.6,10.15-5.4,18.19-5.4,8.5,0,14.68,2.41,18.53,7.23,2.32,2.95,3.49,6.75,3.49,11.39h-12.67c-.51-6.23-3.83-9.35-9.95-9.35-3.06,0-5.51.76-7.35,2.3-1.84,1.53-2.76,3.54-2.76,6.04s.92,4.42,2.76,5.44c1.84,1.02,5.37,2.18,10.59,3.49,2.66.62,4.79,1.18,6.38,1.66,1.59.48,3.43,1.19,5.53,2.13,2.1.94,3.73,1.96,4.89,3.06,1.16,1.11,2.17,2.57,3.02,4.38.85,1.82,1.28,3.88,1.28,6.21,0,5.78-2.31,10.56-6.93,14.33-4.62,3.77-11.04,5.65-19.26,5.65-3.23,0-6.14-.3-8.71-.89-2.58-.59-4.68-1.32-6.29-2.17-1.62-.85-3.02-1.98-4.21-3.4-1.19-1.42-2.07-2.68-2.64-3.78-.57-1.11-1.01-2.48-1.32-4.12-.31-1.64-.5-2.86-.55-3.66-.06-.79-.09-1.81-.09-3.06Z"/>
  <path d="m690.06,322.85h13.18v37.41c0,1.7.04,3.1.13,4.21.09,1.11.38,2.42.89,3.95.51,1.53,1.2,2.75,2.08,3.66.88.91,2.2,1.69,3.95,2.34,1.76.65,3.85.98,6.29.98,5.61,0,9.58-1.79,11.9-5.36,1.3-1.93,1.95-5.41,1.95-10.46v-36.73h12.84v38.34c0,4.37-.81,8.18-2.42,11.44-1.62,3.26-3.77,5.77-6.46,7.52-2.69,1.76-5.54,3.06-8.54,3.91-3.01.85-6.18,1.27-9.52,1.27-11,0-18.7-3.54-23.13-10.63-1.36-2.1-2.23-4.28-2.59-6.55-.37-2.27-.55-5.13-.55-8.59v-36.73Z"/>
  <path d="m755.95,384.15v-61.38h13.43v50.93h26.36v10.46h-39.79Z"/>
  <g>
    <path d="m645.14,388.4c-20.54,0-37.24-16.71-37.24-37.24s16.71-37.24,37.24-37.24,37.24,16.71,37.24,37.24-16.71,37.24-37.24,37.24Zm0-68.13c-17.03,0-30.89,13.86-30.89,30.89s13.86,30.89,30.89,30.89,30.89-13.86,30.89-30.89-13.86-30.89-30.89-30.89Z"/>
    <path d="m645.14,376.32c-13.88,0-25.17-11.29-25.17-25.17s11.29-25.17,25.17-25.17,25.17,11.29,25.17,25.17-11.29,25.17-25.17,25.17Zm0-43.98c-10.37,0-18.81,8.44-18.81,18.81s8.44,18.81,18.81,18.81,18.81-8.44,18.81-18.81-8.44-18.81-18.81-18.81Z"/>
    <path d="m645.14,364.25c-7.22,0-13.09-5.87-13.09-13.09s5.87-13.09,13.09-13.09,13.09,5.87,13.09,13.09-5.87,13.09-13.09,13.09Zm0-19.83c-3.71,0-6.74,3.02-6.74,6.74s3.02,6.74,6.74,6.74,6.74-3.02,6.74-6.74-3.02-6.74-6.74-6.74Z"/>
  </g>
</svg>