<svg width="18" height="18" viewBox="0 0 18 18" fill="none" xmlns="http://www.w3.org/2000/svg">
<g id="link" clip-path="url(#clip0_1_1623)">
<g id="Group">
<path id="Vector" d="M7.5 9.74997C7.82209 10.1806 8.23302 10.5369 8.70491 10.7947C9.17681 11.0525 9.69863 11.2058 10.235 11.2442C10.7713 11.2826 11.3097 11.2053 11.8135 11.0173C12.3173 10.8294 12.7748 10.5353 13.155 10.155L15.405 7.90497C16.0881 7.19772 16.4661 6.25046 16.4575 5.26722C16.449 4.28398 16.0546 3.34344 15.3593 2.64815C14.664 1.95287 13.7235 1.55849 12.7403 1.54995C11.757 1.5414 10.8098 1.91938 10.1025 2.60247L8.8125 3.88497" stroke="#808080" stroke-width="2" stroke-linecap="round" stroke-linejoin="round"/>
<path id="Vector_2" d="M10.5 8.24999C10.1779 7.81939 9.76698 7.4631 9.29509 7.20528C8.82319 6.94746 8.30137 6.79415 7.76501 6.75574C7.22865 6.71732 6.69031 6.79471 6.18649 6.98265C5.68267 7.17059 5.22516 7.46468 4.845 7.84499L2.595 10.095C1.9119 10.8022 1.53393 11.7495 1.54247 12.7327C1.55101 13.716 1.9454 14.6565 2.64068 15.3518C3.33596 16.0471 4.27651 16.4415 5.25974 16.45C6.24298 16.4586 7.19024 16.0806 7.8975 15.3975L9.18 14.115" stroke="#808080" stroke-width="2" stroke-linecap="round" stroke-linejoin="round"/>
</g>
</g>
<defs>
<clipPath id="clip0_1_1623">
<rect width="18" height="18" fill="white"/>
</clipPath>
</defs>
</svg>
